<svg version="1.1" id="weather-scattered-showers" xmlns="http://w3.org" 
     x="0px" y="0px" viewBox="0 0 64 64" enable-background="new 0 0 64 64" xml:space="preserve">
  <!-- Sun Element -->
  <circle fill="#F39C12" cx="22" cy="22" r="10"/>
  <path fill="#F39C12" d="M22,6v3 M22,35v3 M6,22h3 M35,22h3 M10.7,10.7l2.1,2.1 M31.2,31.2l2.1,2.1 M10.7,33.3l2.1-2.1 M31.2,12.7l2.1-2.1" 
        stroke="#F39C12" stroke-width="2.5" stroke-linecap="round"/>
  
  <!-- Cloud Element -->
  <path fill="#7F8C8D" d="M44,24c-1.1,0-2.1,0.2-3,0.6C39.5,21.8,36.9,20,33.8,20c-3.6,0-6.6,2.6-7.2,6c-0.8-0.2-1.6-0.3-2.5-0.3
        c-4.4,0-8,3.6-8,8c0,4.4,3.6,8,8,8h22c4.4,0,8-3.6,8-8C52,27.6,48.4,24,44,24z"/>
        
  <!-- Raindrops -->
  <line fill="none" stroke="#3498DB" stroke-width="2.5" stroke-linecap="round" x1="26" y1="46" x2="24" y2="52"/>
  <line fill="none" stroke="#3498DB" stroke-width="2.5" stroke-linecap="round" x1="34" y1="46" x2="32" y2="52"/>
  <line fill="none" stroke="#3498DB" stroke-width="2.5" stroke-linecap="round" x1="42" y1="46" x2="40" y2="52"/>
</svg>
