<svg xmlns="http://www.w3.org/2000/svg" viewBox="0 0 64 64" width="100" height="100">
  <defs>
    <style>
      .cloud { fill: #90A4AE; }
      .rain { fill: #4FC3F7; opacity: 0.8; animation: fall 1s linear infinite; }
      .r2 { animation-delay: 0.4s; }
      .lightning { fill: #FFCA28; opacity: 0; animation: flash 2.5s steps(1) infinite; }
      
      @keyframes fall {
        0% { transform: translateY(0); opacity: 0; }
        50% { opacity: 1; }
        100% { transform: translateY(12px); opacity: 0; }
      }
      
      @keyframes flash {
        0%, 90%, 94%, 100% { opacity: 0; }
        92%, 96% { opacity: 1; }
      }
    </style>
  </defs>
  <path class="cloud" d="M44 26c0-4.4-3.6-8-8-8-2.9 0-5.4 1.5-6.8 3.8-1.2-1.3-3-2.1-5.2-2.1-3.9 0-7.1 3.1-7.2 7-.1 0-.1.1-.1.1-3.3 0-6 2.7-6 6 0 3.3 2.7 6 6 6h31c3.9 0 7-3.1 7-7 0-3.3-2.4-6-5.7-5.8z"/>
  <polygon class="lightning" points="32,36 26,46 31,46 29,54 38,42 33,42"/>
  <rect class="rain" x="22" y="42" width="2" height="6" rx="1"/>
  <rect class="rain r2" x="28" y="42" width="2" height="6" rx="1"/>
  <rect class="rain" x="34" y="42" width="2" height="6" rx="1"/>
</svg>
